<mxfile host="app.diagrams.net" modified="2023-10-26T15:34:32.675Z" agent="Mozilla/5.0 (Windows NT 10.0; Win64; x64) AppleWebKit/537.36 (KHTML, like Gecko) Chrome/118.0.0.0 Safari/537.36" etag="5I85qt-D2uBRBsP-8L5j" version="22.0.8" type="github">
  <diagram name="Página-1" id="okGasGEt19eLzVrUjZ33">
    <mxGraphModel dx="2261" dy="786" grid="1" gridSize="10" guides="1" tooltips="1" connect="1" arrows="1" fold="1" page="1" pageScale="1" pageWidth="827" pageHeight="1169" math="0" shadow="0">
      <root>
        <mxCell id="0" />
        <mxCell id="1" parent="0" />
        <mxCell id="H9RsW56Z0HANwBw3RKSv-1" value="Editora" style="rounded=0;whiteSpace=wrap;html=1;" vertex="1" parent="1">
          <mxGeometry x="810" y="295" width="120" height="60" as="geometry" />
        </mxCell>
        <mxCell id="H9RsW56Z0HANwBw3RKSv-3" value="Livro" style="rounded=0;whiteSpace=wrap;html=1;" vertex="1" parent="1">
          <mxGeometry x="450" y="295" width="120" height="60" as="geometry" />
        </mxCell>
        <mxCell id="H9RsW56Z0HANwBw3RKSv-5" value="Publica" style="rhombus;whiteSpace=wrap;html=1;" vertex="1" parent="1">
          <mxGeometry x="660" y="285" width="80" height="80" as="geometry" />
        </mxCell>
        <mxCell id="H9RsW56Z0HANwBw3RKSv-8" value="" style="endArrow=none;html=1;rounded=0;exitX=1;exitY=0.5;exitDx=0;exitDy=0;entryX=0;entryY=0.5;entryDx=0;entryDy=0;" edge="1" parent="1" source="H9RsW56Z0HANwBw3RKSv-5" target="H9RsW56Z0HANwBw3RKSv-1">
          <mxGeometry width="50" height="50" relative="1" as="geometry">
            <mxPoint x="590" y="425" as="sourcePoint" />
            <mxPoint x="640" y="375" as="targetPoint" />
          </mxGeometry>
        </mxCell>
        <mxCell id="H9RsW56Z0HANwBw3RKSv-9" value="" style="endArrow=none;html=1;rounded=0;exitX=1;exitY=0.5;exitDx=0;exitDy=0;entryX=0;entryY=0.5;entryDx=0;entryDy=0;" edge="1" parent="1" source="H9RsW56Z0HANwBw3RKSv-3" target="H9RsW56Z0HANwBw3RKSv-5">
          <mxGeometry width="50" height="50" relative="1" as="geometry">
            <mxPoint x="590" y="425" as="sourcePoint" />
            <mxPoint x="640" y="375" as="targetPoint" />
          </mxGeometry>
        </mxCell>
        <mxCell id="H9RsW56Z0HANwBw3RKSv-24" style="edgeStyle=orthogonalEdgeStyle;rounded=0;orthogonalLoop=1;jettySize=auto;html=1;exitX=0.5;exitY=1;exitDx=0;exitDy=0;" edge="1" parent="1">
          <mxGeometry relative="1" as="geometry">
            <mxPoint x="720" y="215" as="sourcePoint" />
            <mxPoint x="720" y="215" as="targetPoint" />
          </mxGeometry>
        </mxCell>
        <mxCell id="H9RsW56Z0HANwBw3RKSv-31" value="Requisição" style="rounded=0;whiteSpace=wrap;html=1;" vertex="1" parent="1">
          <mxGeometry x="140" y="295" width="120" height="60" as="geometry" />
        </mxCell>
        <mxCell id="H9RsW56Z0HANwBw3RKSv-32" value="Utilizador" style="rounded=0;whiteSpace=wrap;html=1;" vertex="1" parent="1">
          <mxGeometry x="-200" y="295" width="120" height="60" as="geometry" />
        </mxCell>
        <mxCell id="H9RsW56Z0HANwBw3RKSv-33" value="Autor" style="rounded=0;whiteSpace=wrap;html=1;" vertex="1" parent="1">
          <mxGeometry x="450" y="50" width="120" height="60" as="geometry" />
        </mxCell>
        <mxCell id="H9RsW56Z0HANwBw3RKSv-34" value="Tem" style="rhombus;whiteSpace=wrap;html=1;" vertex="1" parent="1">
          <mxGeometry x="320" y="285" width="80" height="80" as="geometry" />
        </mxCell>
        <mxCell id="H9RsW56Z0HANwBw3RKSv-35" value="" style="endArrow=none;html=1;rounded=0;entryX=1;entryY=0.5;entryDx=0;entryDy=0;exitX=0;exitY=0.5;exitDx=0;exitDy=0;" edge="1" parent="1" target="H9RsW56Z0HANwBw3RKSv-34" source="H9RsW56Z0HANwBw3RKSv-3">
          <mxGeometry width="50" height="50" relative="1" as="geometry">
            <mxPoint x="480" y="415" as="sourcePoint" />
            <mxPoint x="-30" y="465" as="targetPoint" />
          </mxGeometry>
        </mxCell>
        <mxCell id="H9RsW56Z0HANwBw3RKSv-36" value="" style="endArrow=none;html=1;rounded=0;exitX=1;exitY=0.5;exitDx=0;exitDy=0;entryX=0;entryY=0.5;entryDx=0;entryDy=0;" edge="1" parent="1" target="H9RsW56Z0HANwBw3RKSv-34" source="H9RsW56Z0HANwBw3RKSv-31">
          <mxGeometry width="50" height="50" relative="1" as="geometry">
            <mxPoint x="260" y="415" as="sourcePoint" />
            <mxPoint x="-30" y="465" as="targetPoint" />
          </mxGeometry>
        </mxCell>
        <mxCell id="H9RsW56Z0HANwBw3RKSv-37" style="edgeStyle=orthogonalEdgeStyle;rounded=0;orthogonalLoop=1;jettySize=auto;html=1;exitX=0.5;exitY=1;exitDx=0;exitDy=0;" edge="1" parent="1">
          <mxGeometry relative="1" as="geometry">
            <mxPoint x="400" y="475" as="sourcePoint" />
            <mxPoint x="400" y="475" as="targetPoint" />
          </mxGeometry>
        </mxCell>
        <mxCell id="H9RsW56Z0HANwBw3RKSv-38" value="Faz" style="rhombus;whiteSpace=wrap;html=1;" vertex="1" parent="1">
          <mxGeometry x="-10" y="285" width="80" height="80" as="geometry" />
        </mxCell>
        <mxCell id="H9RsW56Z0HANwBw3RKSv-39" value="" style="endArrow=none;html=1;rounded=0;entryX=1;entryY=0.5;entryDx=0;entryDy=0;exitX=0;exitY=0.5;exitDx=0;exitDy=0;" edge="1" parent="1" target="H9RsW56Z0HANwBw3RKSv-38" source="H9RsW56Z0HANwBw3RKSv-31">
          <mxGeometry width="50" height="50" relative="1" as="geometry">
            <mxPoint x="180" y="485" as="sourcePoint" />
            <mxPoint x="-330" y="535" as="targetPoint" />
          </mxGeometry>
        </mxCell>
        <mxCell id="H9RsW56Z0HANwBw3RKSv-40" value="" style="endArrow=none;html=1;rounded=0;exitX=1;exitY=0.5;exitDx=0;exitDy=0;entryX=0;entryY=0.5;entryDx=0;entryDy=0;" edge="1" parent="1" target="H9RsW56Z0HANwBw3RKSv-38" source="H9RsW56Z0HANwBw3RKSv-32">
          <mxGeometry width="50" height="50" relative="1" as="geometry">
            <mxPoint x="-40" y="485" as="sourcePoint" />
            <mxPoint x="-330" y="535" as="targetPoint" />
          </mxGeometry>
        </mxCell>
        <mxCell id="H9RsW56Z0HANwBw3RKSv-41" style="edgeStyle=orthogonalEdgeStyle;rounded=0;orthogonalLoop=1;jettySize=auto;html=1;exitX=0.5;exitY=1;exitDx=0;exitDy=0;" edge="1" parent="1">
          <mxGeometry relative="1" as="geometry">
            <mxPoint x="-100" y="550" as="sourcePoint" />
            <mxPoint x="-100" y="550" as="targetPoint" />
          </mxGeometry>
        </mxCell>
        <mxCell id="H9RsW56Z0HANwBw3RKSv-42" value="Escreve" style="rhombus;whiteSpace=wrap;html=1;" vertex="1" parent="1">
          <mxGeometry x="470" y="160" width="80" height="80" as="geometry" />
        </mxCell>
        <mxCell id="H9RsW56Z0HANwBw3RKSv-43" value="" style="endArrow=none;html=1;rounded=0;entryX=0.5;entryY=1;entryDx=0;entryDy=0;exitX=0.5;exitY=0;exitDx=0;exitDy=0;" edge="1" parent="1" target="H9RsW56Z0HANwBw3RKSv-42" source="H9RsW56Z0HANwBw3RKSv-3">
          <mxGeometry width="50" height="50" relative="1" as="geometry">
            <mxPoint x="850" y="215" as="sourcePoint" />
            <mxPoint x="340" y="265" as="targetPoint" />
          </mxGeometry>
        </mxCell>
        <mxCell id="H9RsW56Z0HANwBw3RKSv-44" value="" style="endArrow=none;html=1;rounded=0;exitX=0.5;exitY=1;exitDx=0;exitDy=0;entryX=0.5;entryY=0;entryDx=0;entryDy=0;" edge="1" parent="1" target="H9RsW56Z0HANwBw3RKSv-42" source="H9RsW56Z0HANwBw3RKSv-33">
          <mxGeometry width="50" height="50" relative="1" as="geometry">
            <mxPoint x="630" y="175" as="sourcePoint" />
            <mxPoint x="510" y="140" as="targetPoint" />
          </mxGeometry>
        </mxCell>
        <mxCell id="H9RsW56Z0HANwBw3RKSv-45" style="edgeStyle=orthogonalEdgeStyle;rounded=0;orthogonalLoop=1;jettySize=auto;html=1;exitX=0.5;exitY=1;exitDx=0;exitDy=0;" edge="1" parent="1">
          <mxGeometry relative="1" as="geometry">
            <mxPoint x="770" y="275" as="sourcePoint" />
            <mxPoint x="770" y="275" as="targetPoint" />
          </mxGeometry>
        </mxCell>
        <mxCell id="H9RsW56Z0HANwBw3RKSv-47" value="Nome&lt;br&gt;Nacionalidade&lt;br&gt;Data de Nascimento" style="text;html=1;strokeColor=none;fillColor=none;align=center;verticalAlign=middle;whiteSpace=wrap;rounded=0;" vertex="1" parent="1">
          <mxGeometry x="450" width="120" height="50" as="geometry" />
        </mxCell>
        <mxCell id="H9RsW56Z0HANwBw3RKSv-52" value="Nome&lt;br&gt;Morada&lt;br&gt;Telefone&lt;br&gt;Contribuinte" style="text;html=1;strokeColor=none;fillColor=none;align=center;verticalAlign=middle;whiteSpace=wrap;rounded=0;" vertex="1" parent="1">
          <mxGeometry x="930" y="307.5" width="90" height="35" as="geometry" />
        </mxCell>
        <mxCell id="H9RsW56Z0HANwBw3RKSv-53" value="ID Livro&lt;br&gt;Titulo&lt;br&gt;Ano de Publicação" style="text;html=1;strokeColor=none;fillColor=none;align=center;verticalAlign=middle;whiteSpace=wrap;rounded=0;" vertex="1" parent="1">
          <mxGeometry x="450" y="365" width="120" height="30" as="geometry" />
        </mxCell>
        <mxCell id="H9RsW56Z0HANwBw3RKSv-54" value="Nome&lt;br&gt;CC&lt;br&gt;Email&lt;br&gt;Telefone" style="text;html=1;strokeColor=none;fillColor=none;align=center;verticalAlign=middle;whiteSpace=wrap;rounded=0;" vertex="1" parent="1">
          <mxGeometry x="-260" y="307.5" width="60" height="30" as="geometry" />
        </mxCell>
        <mxCell id="H9RsW56Z0HANwBw3RKSv-55" value="Data de Requisição&lt;br&gt;Data de Devolução" style="text;html=1;strokeColor=none;fillColor=none;align=center;verticalAlign=middle;whiteSpace=wrap;rounded=0;" vertex="1" parent="1">
          <mxGeometry x="125" y="245" width="150" height="50" as="geometry" />
        </mxCell>
        <mxCell id="H9RsW56Z0HANwBw3RKSv-56" value="1" style="text;html=1;strokeColor=none;fillColor=none;align=center;verticalAlign=middle;whiteSpace=wrap;rounded=0;" vertex="1" parent="1">
          <mxGeometry x="-90" y="295" width="60" height="30" as="geometry" />
        </mxCell>
        <mxCell id="H9RsW56Z0HANwBw3RKSv-59" value="1" style="text;html=1;strokeColor=none;fillColor=none;align=center;verticalAlign=middle;whiteSpace=wrap;rounded=0;" vertex="1" parent="1">
          <mxGeometry x="760" y="295" width="60" height="30" as="geometry" />
        </mxCell>
        <mxCell id="H9RsW56Z0HANwBw3RKSv-60" value="N" style="text;html=1;strokeColor=none;fillColor=none;align=center;verticalAlign=middle;whiteSpace=wrap;rounded=0;" vertex="1" parent="1">
          <mxGeometry x="560" y="295" width="60" height="30" as="geometry" />
        </mxCell>
        <mxCell id="H9RsW56Z0HANwBw3RKSv-61" value="N" style="text;html=1;strokeColor=none;fillColor=none;align=center;verticalAlign=middle;whiteSpace=wrap;rounded=0;" vertex="1" parent="1">
          <mxGeometry x="400" y="295" width="60" height="30" as="geometry" />
        </mxCell>
        <mxCell id="H9RsW56Z0HANwBw3RKSv-62" value="1" style="text;html=1;strokeColor=none;fillColor=none;align=center;verticalAlign=middle;whiteSpace=wrap;rounded=0;" vertex="1" parent="1">
          <mxGeometry x="250" y="295" width="60" height="30" as="geometry" />
        </mxCell>
        <mxCell id="H9RsW56Z0HANwBw3RKSv-63" value="N" style="text;html=1;strokeColor=none;fillColor=none;align=center;verticalAlign=middle;whiteSpace=wrap;rounded=0;" vertex="1" parent="1">
          <mxGeometry x="80" y="295" width="60" height="30" as="geometry" />
        </mxCell>
        <mxCell id="H9RsW56Z0HANwBw3RKSv-64" value="1" style="text;html=1;strokeColor=none;fillColor=none;align=center;verticalAlign=middle;whiteSpace=wrap;rounded=0;" vertex="1" parent="1">
          <mxGeometry x="490" y="110" width="60" height="30" as="geometry" />
        </mxCell>
        <mxCell id="H9RsW56Z0HANwBw3RKSv-65" value="N" style="text;html=1;strokeColor=none;fillColor=none;align=center;verticalAlign=middle;whiteSpace=wrap;rounded=0;" vertex="1" parent="1">
          <mxGeometry x="490" y="265" width="60" height="30" as="geometry" />
        </mxCell>
      </root>
    </mxGraphModel>
  </diagram>
</mxfile>
